<?xml version="1.0" encoding="iso-8859-1"?>
<!-- Generator: Adobe Illustrator 19.0.0, SVG Export Plug-In . SVG Version: 6.00 Build 0)  -->
<svg version="1.1" id="Capa_1" xmlns="http://www.w3.org/2000/svg" xmlns:xlink="http://www.w3.org/1999/xlink" x="0px" y="0px"
	 viewBox="0 0 512 512" style="enable-background:new 0 0 512 512;" xml:space="preserve">
<g>
	<polygon style="fill:#596674;" points="409.53,113.493 382.204,115.57 359.824,137.949 361.259,161.763 385.074,163.198 
		407.453,140.819 	"/>
	<polygon style="fill:#596674;" points="361.259,161.763 337.445,160.328 315.066,182.707 316.498,206.525 340.315,207.956 
		362.695,185.577 	"/>
	<polygon style="fill:#596674;" points="316.498,206.525 292.68,205.093 270.301,227.472 271.735,251.287 295.55,252.722 
		317.929,230.343 	"/>
</g>
<path style="fill:#FD6F71;" d="M271.019,239.391c0,0-45.93-10.681-30.969-57.375c14.96-46.694-29.467-61.201-67.548,41.254
	c-17.653,39.511-76.618,1.857-162.44,111.072c-7.101,9.036,1.099,21.982,12.292,19.378c39.664-9.227,104.65-18.183,134.891,12.058
	c30.67,30.67,22.509,51.524-8.318,81.444c-30.827,29.921,21.123,26.711,58.707-5.214c54.175-46.014,35.134-89.535,92.709-107.215
	c61.201-14.053,84.322-36.267,78.882-54.401C373.786,262.258,280.228,318.526,271.019,239.391z"/>
<path style="fill:#F74F50;" d="M379.226,280.392c-1.62-5.399-11.05-4.203-23.74-1.949c-9.291,13.321-33.322,26.738-75.149,36.342
	c-57.574,17.68-38.534,61.201-92.709,107.215c-10.86,9.223-22.915,16.045-33.83,20.368c-1.555,1.593-3.176,3.208-4.87,4.853
	c-30.827,29.921,21.123,26.711,58.707-5.214c54.175-46.014,35.134-89.535,92.709-107.215
	C361.545,320.739,384.666,298.525,379.226,280.392z"/>
<polygon style="fill:#596674;" points="271.735,251.287 247.922,249.852 215.172,282.602 240.421,307.851 273.171,275.101 "/>
<g>
	<circle style="fill:#EFEDEE;" cx="132.909" cy="292.326" r="14.533"/>
	<circle style="fill:#EFEDEE;" cx="84.331" cy="306.111" r="12.313"/>
</g>
<g>
	
		<rect x="255.912" y="233.434" transform="matrix(-0.7071 0.7071 -0.7071 -0.7071 641.5696 236.8272)" style="fill:#364E66;" width="31.648" height="35.707"/>
	
		<rect x="300.66" y="188.665" transform="matrix(-0.7071 0.7071 -0.7071 -0.7071 686.3115 128.7579)" style="fill:#364E66;" width="31.658" height="35.707"/>
	
		<rect x="345.434" y="143.914" transform="matrix(-0.7071 0.7071 -0.7071 -0.7071 731.0929 20.7065)" style="fill:#364E66;" width="31.648" height="35.707"/>
</g>
<g>
	<path style="fill:#EFEDEE;" d="M253.613,300.302L222.72,269.41c-3.066-3.066-8.037-3.066-11.103,0l-9.638,9.638
		c-3.066,3.066-3.066,8.037,0,11.103l30.892,30.892c3.066,3.066,8.037,3.066,11.103,0l9.638-9.638
		C256.679,308.339,256.679,303.368,253.613,300.302z"/>
	<path style="fill:#EFEDEE;" d="M216.988,336.926l-30.892-30.892c-3.066-3.066-8.037-3.066-11.103,0l-9.638,9.638
		c-3.066,3.066-3.066,8.037,0,11.103l30.892,30.892c3.066,3.066,8.037,3.066,11.103,0l9.638-9.638
		C220.054,344.963,220.054,339.993,216.988,336.926z"/>
</g>
<path style="fill:#FD6F71;" d="M486.473,44.838l-71.254,24.228c-13.053,4.439-23.193,14.855-27.28,28.022l-5.736,18.483l25.25,25.25
	c0,0,29.151-0.77,40.711-19.13c11.56-18.36,46.241-29.921,46.241-29.921l9.515-29.809C507.337,51.255,497.113,41.22,486.473,44.838z
	"/>
<path style="fill:#F74F50;" d="M492.495,44.181c0.215,1.849,0.052,3.8-0.578,5.775l-9.515,29.809c0,0-34.681,11.56-46.241,29.921
	c-11.56,18.361-40.711,19.131-40.711,19.131l12.004,12.004c0,0,29.151-0.77,40.711-19.13c11.56-18.361,46.241-29.921,46.241-29.921
	l9.515-29.809C506.678,53.323,500.552,45.126,492.495,44.181z"/>
<path d="M222.248,331.622c0,0-30.86-30.861-30.892-30.893c-5.918-5.918-15.804-5.908-21.713,0c0,0-9.627,9.628-9.638,9.638
	c-5.906,5.906-5.893,15.82,0,21.713c0,0,30.869,30.869,30.892,30.892c5.921,5.921,15.797,5.916,21.713,0l9.638-9.638
	C228.234,347.349,228.234,337.609,222.248,331.622z M211.637,342.726L202,352.363c-0.137,0.136-0.357,0.134-0.492,0
	c0,0-30.803-30.804-30.892-30.892c-0.136-0.136-0.134-0.358,0-0.492c0,0,9.589-9.588,9.637-9.638
	c0.136-0.136,0.358-0.136,0.493-0.001l30.892,30.892C211.773,342.368,211.773,342.59,211.637,342.726z"/>
<path d="M117.283,276.747c-8.592,8.591-8.592,22.571,0,31.163c8.492,8.492,22.681,8.482,31.163,0c8.494-8.495,8.488-22.676,0-31.163
	C139.95,268.251,125.771,268.26,117.283,276.747z M139.869,292.329c0,1.809-0.678,3.616-2.033,4.971
	c-2.711,2.712-7.234,2.709-9.943,0c-2.741-2.741-2.741-7.202,0-9.943c2.711-2.712,7.234-2.709,9.943,0
	C139.192,288.713,139.869,290.522,139.869,292.329z"/>
<path d="M70.272,292.101c-7.637,7.637-7.63,20.393-0.001,28.022c7.639,7.638,20.39,7.633,28.022,0c7.639-7.64,7.635-20.388,0-28.022
	C90.657,284.464,77.901,284.473,70.272,292.101z M89.075,306.112c0,1.236-0.464,2.474-1.391,3.4c-1.855,1.855-4.95,1.852-6.801,0
	c-1.851-1.851-1.846-4.955,0-6.8c1.857-1.856,4.947-1.855,6.801,0C88.611,303.639,89.075,304.876,89.075,306.112z"/>
<path d="M490.9,36.583c-2.323,0-4.64,0.387-6.888,1.151l-71.254,24.228c-15.275,5.193-27.249,17.493-32.031,32.902l-5.187,16.713
	L260.399,226.719c-14.908-9.069-19.371-23.311-13.251-42.412c8.114-25.323,0.353-40.599-10.938-44.503
	c-5.997-2.076-18.524-2.828-35.026,15.425c-12.678,14.023-25.01,36.559-35.673,65.19c-5.224,11.479-14.636,14.57-33.618,19.905
	c-29.406,8.263-73.844,20.751-127.776,89.384c-11.23,14.29,2.208,35.435,19.891,31.32c83.173-19.348,115.825-2.005,127.887,10.056
	c11.744,11.745,17.183,21.536,17.113,30.812c-0.081,10.829-7.663,22.774-25.351,39.943c-5.178,5.025-8.535,9.481-10.264,13.624
	c-3.304,7.914,0.164,12.979,1.808,14.789c3.252,3.58,8.464,5.166,14.837,5.166c17.609-0.001,44.066-12.108,62.411-27.69
	c1.223-1.039,2.504-2.165,3.916-3.441c3.074-2.779,3.313-7.524,0.534-10.597c-2.779-3.073-7.524-3.314-10.597-0.534
	c-1.297,1.172-2.465,2.199-3.568,3.137c-23.151,19.664-47.588,25.109-55.061,24.067c0.804-1.471,2.571-4,6.436-7.751
	c15.448-14.993,29.763-31.501,29.906-50.598c0.101-13.562-6.733-26.76-21.508-41.535c-14.797-14.797-38.046-22.544-69.1-23.026
	c-26.539-0.426-54.237,4.648-72.797,8.966c-4.246,0.985-7.352-4.051-4.693-7.435c50.908-64.784,90.863-76.011,120.037-84.21
	c18.806-5.285,35.048-9.849,43.353-28.437c0.065-0.147,0.126-0.296,0.182-0.447c22.133-59.55,44.852-74.316,51.818-71.9
	c3.558,1.23,6.512,10.263,1.553,25.742c-10.071,31.431,4.359,48.989,16.752,57.78l-24.41,24.41c-2.405-1.496-5.176-2.31-8.078-2.31
	c-4.102,0-7.957,1.598-10.857,4.498l-9.638,9.638c-5.986,5.986-5.986,15.727,0,21.714c0,0,30.863,30.863,30.892,30.893
	c5.922,5.922,15.797,5.915,21.713,0l9.638-9.638c5.13-5.131,5.849-13.013,2.185-18.932l19.545-19.545
	c19.793,17.81,50.987,12.153,72.308,8.289c6.751-1.224,15.731-2.852,19.422-2.455c0.4,2.701-0.262,5.494-2.006,8.492
	c-3.724,6.404-18.169,22.626-71.709,34.921c-0.176,0.04-0.351,0.087-0.523,0.14c-34.963,10.737-44.75,31.256-55.111,52.979
	c-4.807,10.078-9.777,20.497-17.631,31.398c-2.422,3.362-1.661,8.051,1.701,10.474c3.362,2.422,8.051,1.661,10.473-1.702
	c8.643-11.995,14.146-23.532,19.001-33.71c10.021-21.008,17.266-36.203,45.72-45.017c42.807-9.863,70.829-24.362,81.052-41.938
	c4.156-7.145,5.216-14.706,3.067-21.868c-1.294-4.317-5.188-9.402-16.329-9.19c-5.452,0.109-12.101,1.315-19.801,2.711
	c-20.049,3.634-44.508,8.061-58.98-4.176l119.467-119.47c8.584-0.791,32.503-4.571,43.745-22.425
	c8.281-13.153,33.32-23.807,42.264-26.801c2.273-0.757,4.047-2.555,4.775-4.836c0,0,9.503-29.774,9.514-29.809
	C515.298,50.847,504.997,36.583,490.9,36.583z M382.158,126.182l14.638,14.638l-11.768,11.768l-14.638-14.638L382.158,126.182z
	 M359.779,148.56l14.638,14.639l-11.768,11.768l-14.638-14.638L359.779,148.56z M315.021,193.318l14.638,14.639l-11.775,11.775
	l-14.638-14.638L315.021,193.318z M236.107,272.232l11.769-11.768l14.638,14.638l-11.768,11.768L236.107,272.232z M273.126,264.491
	l-14.638-14.638l11.768-11.769l14.638,14.638L273.126,264.491z M248.263,306.1c0,0-9.591,9.592-9.637,9.638
	c-0.136,0.136-0.358,0.135-0.493,0.001l-30.892-30.892c-0.136-0.136-0.136-0.357,0-0.493c0,0,9.589-9.59,9.638-9.638
	c0.136-0.136,0.357-0.135,0.493,0l30.892,30.892C248.398,305.743,248.398,305.964,248.263,306.1z M295.505,242.112l-14.638-14.638
	l11.768-11.769l14.638,14.638L295.505,242.112z M340.269,197.346l-14.638-14.638l11.769-11.769l14.638,14.638L340.269,197.346z
	 M496.727,59.68l-8.392,26.292c-9.725,3.693-35.972,14.897-46.565,31.722c-7.301,11.594-24.472,14.617-31.499,15.381l-19.606-19.605
	l4.394-14.156c3.363-10.838,11.786-19.49,22.53-23.143c0,0,70.981-24.135,71.253-24.227
	C493.539,50.345,498.227,54.981,496.727,59.68z"/>
<g>
</g>
<g>
</g>
<g>
</g>
<g>
</g>
<g>
</g>
<g>
</g>
<g>
</g>
<g>
</g>
<g>
</g>
<g>
</g>
<g>
</g>
<g>
</g>
<g>
</g>
<g>
</g>
<g>
</g>
</svg>
